<?xml version="1.0" encoding="UTF-8"?>
<svg version="1.1" xmlns="http://www.w3.org/2000/svg" width="469" height="189">
<path d="M0 0 C154.77 0 309.54 0 469 0 C469 62.37 469 124.74 469 189 C314.23 189 159.46 189 0 189 C0 126.63 0 64.26 0 0 Z " fill="#010101" transform="translate(0,0)"/>
<path d="M0 0 C3.51494706 2.84052155 5.39246375 5.35753112 6.140625 9.875 C6.53972409 17.14065007 4.46227207 22.25428989 0.73046875 28.3984375 C0.40046875 27.7384375 0.07046875 27.0784375 -0.26953125 26.3984375 C0.22546875 24.9134375 0.22546875 24.9134375 0.73046875 23.3984375 C1.24900693 18.4595739 1.282464 14.54488916 -0.89453125 10.0234375 C-3.47508126 7.17125065 -5.90597631 5.25912747 -9.26953125 3.3984375 C-10.25953125 3.3984375 -11.24953125 3.3984375 -12.26953125 3.3984375 C-10.94953125 4.0584375 -9.62953125 4.7184375 -8.26953125 5.3984375 C-8.59953125 6.0584375 -8.92953125 6.7184375 -9.26953125 7.3984375 C-8.60953125 7.3984375 -7.94953125 7.3984375 -7.26953125 7.3984375 C-7.26953125 8.0584375 -7.26953125 8.7184375 -7.26953125 9.3984375 C-8.58953125 9.3984375 -9.90953125 9.3984375 -11.26953125 9.3984375 C-11.26953125 10.7184375 -11.26953125 12.0384375 -11.26953125 13.3984375 C-10.60953125 13.3984375 -9.94953125 13.3984375 -9.26953125 13.3984375 C-9.26953125 14.7184375 -9.26953125 16.0384375 -9.26953125 17.3984375 C-7.28953125 17.8934375 -7.28953125 17.8934375 -5.26953125 18.3984375 C-3.53059278 25.18029754 -4.9553803 31.30784514 -8.20703125 37.3984375 C-10.26953125 40.3984375 -10.26953125 40.3984375 -13.26953125 41.3984375 C-14.92273242 43.25228964 -14.92273242 43.25228964 -16.51953125 45.5234375 C-27.67476818 60.16612946 -43.8344962 70.38814716 -62.2734375 73.0546875 C-63.75650391 73.22484375 -63.75650391 73.22484375 -65.26953125 73.3984375 C-65.26953125 74.0584375 -65.26953125 74.7184375 -65.26953125 75.3984375 C-69.22953125 75.3984375 -73.18953125 75.3984375 -77.26953125 75.3984375 C-77.26953125 74.7384375 -77.26953125 74.0784375 -77.26953125 73.3984375 C-77.924375 73.44484375 -78.57921875 73.49125 -79.25390625 73.5390625 C-88.02427486 73.88591324 -95.71114081 72.15246506 -103.26953125 67.5859375 C-108.45991316 61.90895729 -109.90269654 57.72864841 -109.58984375 50.10546875 C-108.74598766 42.9738557 -105.59013585 38.00354618 -101.26953125 32.3984375 C-100.27953125 32.7284375 -99.28953125 33.0584375 -98.26953125 33.3984375 C-98.26953125 38.0184375 -98.26953125 42.6384375 -98.26953125 47.3984375 C-97.60953125 47.3984375 -96.94953125 47.3984375 -96.26953125 47.3984375 C-95.19140625 49.0078125 -95.19140625 49.0078125 -94.01953125 51.1484375 C-91.58413417 55.12531424 -89.60723598 57.39024086 -85.26953125 59.3984375 C-81.60591561 59.99048588 -77.97637346 60.26652141 -74.26953125 60.3984375 C-74.26953125 59.0784375 -74.26953125 57.7584375 -74.26953125 56.3984375 C-75.32140625 55.8209375 -76.37328125 55.2434375 -77.45703125 54.6484375 C-78.7505468 53.9382721 -80.01914194 53.18204705 -81.26953125 52.3984375 C-82.60951172 51.57085937 -82.60951172 51.57085937 -83.9765625 50.7265625 C-86.26953125 48.3984375 -86.26953125 48.3984375 -86.86328125 44.8671875 C-86.83234375 43.5575 -86.80140625 42.2478125 -86.76953125 40.8984375 C-86.75921875 39.58875 -86.74890625 38.2790625 -86.73828125 36.9296875 C-86.25722301 33.30571544 -85.65575074 32.04229509 -83.26953125 29.3984375 C-83.00140625 28.5940625 -82.73328125 27.7896875 -82.45703125 26.9609375 C-81.09146377 24.01418663 -79.30081258 22.65907766 -76.76171875 20.703125 C-75.02843846 19.31553203 -75.02843846 19.31553203 -73.51953125 16.5859375 C-64.91181035 4.39166622 -48.6061482 -2.25072242 -34.40625 -5.1953125 C-22.74174885 -6.70603245 -9.98559038 -6.89623607 0 0 Z " fill="#040303" transform="translate(141.26953125,62.6015625)"/>
<path d="M0 0 C1.9375 1.5 1.9375 1.5 3 3 C2.34 3 1.68 3 1 3 C1 3.66 1 4.32 1 5 C0.27296875 5.15855469 -0.4540625 5.31710938 -1.203125 5.48046875 C-15.69988845 8.84446129 -29.1431635 14.61519987 -40 25 C-40 25.66 -40 26.32 -40 27 C-40.66 27 -41.32 27 -42 27 C-42.33 27.99 -42.66 28.98 -43 30 C-44.423125 31.11375 -44.423125 31.11375 -45.875 32.25 C-49.41339692 35.03319949 -50.47169368 37.81726692 -52 42 C-52.495 42.495 -52.495 42.495 -53 43 C-54.24034589 52.02763309 -54.24034589 52.02763309 -51.390625 60.22265625 C-49.32542938 61.74049739 -47.31085029 62.89796788 -45 64 C-44.01 64.61875 -43.02 65.2375 -42 65.875 C-41.01 66.431875 -41.01 66.431875 -40 67 C-40.66 68.32 -41.32 69.64 -42 71 C-49.04611637 70.97409516 -53.95344615 70.27329181 -59.40625 65.625 C-61.92092229 63.06102042 -64 60.69351892 -64 57 C-64.66 57 -65.32 57 -66 57 C-66.05406122 55.06280622 -66.09282025 53.12518079 -66.125 51.1875 C-66.14820313 50.10855469 -66.17140625 49.02960938 -66.1953125 47.91796875 C-66 45 -66 45 -64 42 C-63.20727757 39.47656943 -62.54541457 36.93439196 -61.87890625 34.375 C-60.94702062 31.85683795 -60.10687758 30.63808384 -58 29 C-57.34 29 -56.68 29 -56 29 C-56 28.01 -56 27.02 -56 26 C-54.9171875 25.9071875 -54.9171875 25.9071875 -53.8125 25.8125 C-49.58823953 24.59215809 -47.46235026 21.66176166 -44.625 18.4375 C-42.58054514 16.62894378 -40.30067612 15.37023349 -37.9140625 14.0625 C-36.49248961 13.27338199 -35.0975172 12.43594825 -33.71875 11.57421875 C-30.53758354 9.73225024 -27.25058345 8.25156452 -23.875 6.8125 C-23.25496094 6.53986328 -22.63492188 6.26722656 -21.99609375 5.98632812 C-19.15257025 4.76636482 -17.12849722 4 -14 4 C-14 3.34 -14 2.68 -14 2 C-9.18199479 0.42677381 -5.13591608 -0.49383808 0 0 Z " fill="#030138" transform="translate(109,53)"/>
<path d="M0 0 C0.70382812 -0.02900391 1.40765625 -0.05800781 2.1328125 -0.08789062 C7.28247406 -0.15010773 10.17676315 0.90781875 14.25 4.3125 C16.62511857 8.95477721 17.04216347 14.18229849 16.25 19.3125 C14.375 22.375 14.375 22.375 12.25 24.3125 C11.59 24.3125 10.93 24.3125 10.25 24.3125 C9.92 25.3025 9.59 26.2925 9.25 27.3125 C6.87374823 27.42133596 4.50256024 27.50016696 2.125 27.5625 C1.45984375 27.59601563 0.7946875 27.62953125 0.109375 27.6640625 C-5.03171236 27.76486813 -7.80661411 26.53997357 -11.75 23.3125 C-14.84237992 18.98316812 -15.32070383 14.91675756 -15.1796875 9.72265625 C-14.47191869 5.75271664 -12.67295311 4.02667074 -9.75 1.3125 C-6.65083704 -0.23708148 -3.39928151 0.04568927 0 0 Z " fill="#EBEBEB" transform="translate(357.75,74.6875)"/>
<path d="M0 0 C3.733125 -0.061875 7.46625 -0.12375 11.3125 -0.1875 C12.48594971 -0.21481201 13.65939941 -0.24212402 14.8684082 -0.27026367 C15.79484131 -0.27775635 16.72127441 -0.28524902 17.67578125 -0.29296875 C19.0975769 -0.31653442 19.0975769 -0.31653442 20.5480957 -0.34057617 C23 0 23 0 24.78710938 1.38305664 C28.43670506 6.2484496 28.22234308 14.11322409 28.55859375 19.9921875 C28 22 28 22 26.2109375 24.2421875 C21.30982904 26.92527607 16.66883667 26.422785 11.1875 26.25 C7.495625 26.1675 3.80375 26.085 0 26 C0 17.42 0 8.84 0 0 Z " fill="#F2F2F2" transform="translate(311,75)"/>
<path d="M0 0 C3.5475 -0.061875 7.095 -0.12375 10.75 -0.1875 C11.86213867 -0.21481201 12.97427734 -0.24212402 14.12011719 -0.27026367 C15.4451123 -0.28150269 15.4451123 -0.28150269 16.796875 -0.29296875 C17.69760742 -0.3086792 18.59833984 -0.32438965 19.52636719 -0.34057617 C22.50373242 0.06935518 23.85727766 0.91885014 26 3 C26.390625 5.69921875 26.390625 5.69921875 26.25 8.6875 C26.21390625 9.68136719 26.1778125 10.67523438 26.140625 11.69921875 C26.07101562 12.83810547 26.07101562 12.83810547 26 14 C24.02 14.99 24.02 14.99 22 16 C23.65 19.3 25.3 22.6 27 26 C21.79816942 26.61716634 21.79816942 26.61716634 19 26 C17.42832215 24.32982463 16.39474417 22.59592357 15.23046875 20.625 C13.98050934 18.63508622 13.98050934 18.63508622 10.6875 18.0625 C9.800625 18.041875 8.91375 18.02125 8 18 C8 20.97 8 23.94 8 27 C5.36 27 2.72 27 0 27 C0 18.09 0 9.18 0 0 Z " fill="#EBEBEB" transform="translate(411,75)"/>
<path d="M0 0 C2.97 0 5.94 0 9 0 C9 2.31 9 4.62 9 7 C9.53367188 6.4946875 10.06734375 5.989375 10.6171875 5.46875 C14.87100544 1.75953851 17.77167272 -0.49532566 23.5625 -0.4375 C25.04472162 -0.32695379 26.52635309 -0.19381995 28 0 C24.50640535 3.59634744 20.88901869 6.83451967 17 10 C18.41137593 13.14575332 20.12400487 15.45266773 22.4375 18 C24.77114323 20.58061627 26.94808499 23.18881369 29 26 C25.86235668 26.52294055 23.12577762 26.65321978 20 26 C17.58289052 24.14356024 15.70761551 22.15888476 13.7265625 19.84765625 C12.0399938 17.74819639 12.0399938 17.74819639 9 17 C9 20.3 9 23.6 9 27 C2.84765625 27.09765625 2.84765625 27.09765625 1 27 C0 26 0 26 -0.11352539 23.49975586 C-0.10828857 22.41573486 -0.10305176 21.33171387 -0.09765625 20.21484375 C-0.09443359 19.04501953 -0.09121094 17.87519531 -0.08789062 16.66992188 C-0.07951172 15.43822266 -0.07113281 14.20652344 -0.0625 12.9375 C-0.05798828 11.70193359 -0.05347656 10.46636719 -0.04882812 9.19335938 C-0.03699608 6.12885883 -0.02051173 3.06445279 0 0 Z " fill="#E1E1E1" transform="translate(171,75)"/>
<path d="M0 0 C0.80050781 0.05800781 1.60101563 0.11601563 2.42578125 0.17578125 C3.23402344 0.22089844 4.04226563 0.26601562 4.875 0.3125 C5.48988281 0.37050781 6.10476563 0.42851563 6.73828125 0.48828125 C16.73828125 21.75494792 16.73828125 21.75494792 16.73828125 26.48828125 C14.09828125 26.48828125 11.45828125 26.48828125 8.73828125 26.48828125 C8.73828125 25.16828125 8.73828125 23.84828125 8.73828125 22.48828125 C4.44828125 22.48828125 0.15828125 22.48828125 -4.26171875 22.48828125 C-4.59171875 23.80828125 -4.92171875 25.12828125 -5.26171875 26.48828125 C-7.90171875 26.48828125 -10.54171875 26.48828125 -13.26171875 26.48828125 C-5.23140823 1.12940592 -5.23140823 1.12940592 0 0 Z " fill="#E9E9E9" transform="translate(289.26171875,74.51171875)"/>
<path d="M0 0 C2.64 0 5.28 0 8 0 C8.06058594 1.26457031 8.12117188 2.52914062 8.18359375 3.83203125 C8.26800904 5.49219871 8.35265655 7.15235437 8.4375 8.8125 C8.47681641 9.64587891 8.51613281 10.47925781 8.55664062 11.33789062 C8.61948242 12.54155273 8.61948242 12.54155273 8.68359375 13.76953125 C8.72025146 14.50792236 8.75690918 15.24631348 8.79467773 16.00708008 C8.94842141 18.207495 8.94842141 18.207495 10 21 C11.45922693 20.88590407 12.91740598 20.75834456 14.375 20.625 C15.59316406 20.52058594 15.59316406 20.52058594 16.8359375 20.4140625 C19.20334191 20.17107412 19.20334191 20.17107412 21 18 C21.36831081 16.06742145 21.36831081 16.06742145 21.4140625 13.8671875 C21.45273437 13.06152344 21.49140625 12.25585938 21.53125 11.42578125 C21.57765625 10.16314453 21.57765625 10.16314453 21.625 8.875 C21.66367187 8.02550781 21.70234375 7.17601563 21.7421875 6.30078125 C21.83656494 4.20088316 21.91937586 2.10047109 22 0 C24.64 0 27.28 0 30 0 C30.10852923 2.87602455 30.1875515 5.74790832 30.25 8.625 C30.30027344 9.83736328 30.30027344 9.83736328 30.3515625 11.07421875 C30.44089733 16.56831098 29.68773163 19.65518164 26 24 C20.95499928 27.60357194 15.96771284 27.55071176 10 27 C5.93217646 26.09603921 3.69114944 24.13501786 1.05834961 20.90771484 C-0.99269629 17.21062773 -0.5137945 13.23760152 -0.3125 9.125 C-0.28994141 8.24585937 -0.26738281 7.36671875 -0.24414062 6.4609375 C-0.18559748 4.30654993 -0.09592783 2.1530469 0 0 Z " fill="#E9E9E9" transform="translate(378,75)"/>
<path d="M0 0 C2.64 0 5.28 0 8 0 C8.33 2.31 8.66 4.62 9 7 C9.46148437 6.4946875 9.92296875 5.989375 10.3984375 5.46875 C15.66256216 0.22543216 15.66256216 0.22543216 19.7578125 -0.46484375 C22.20650725 -0.44042657 24.57223653 -0.31342028 27 0 C24.24967522 3.85045469 21.42227121 6.27872201 17.48828125 8.7890625 C15.69230541 10.02926351 15.69230541 10.02926351 15 13 C15.56203125 13.2371875 16.1240625 13.474375 16.703125 13.71875 C19.51894042 15.28947697 21.47955416 17.21471464 23.75 19.5 C24.54921875 20.2940625 25.3484375 21.088125 26.171875 21.90625 C28 24 28 24 28 26 C24.52250021 26.49678568 22.36608332 26.77054919 19 26 C16.29508956 23.89618077 14.11990582 21.62719544 11.84765625 19.06640625 C10.1648146 16.92879369 10.1648146 16.92879369 8 16 C8 19.3 8 22.6 8 26 C5.36 26 2.72 26 0 26 C0 17.42 0 8.84 0 0 Z " fill="#EDEDED" transform="translate(205,75)"/>
<path d="M0 0 C0.33 0.66 0.66 1.32 1 2 C0.525625 3.010625 0.05125 4.02125 -0.4375 5.0625 C-2.69016213 10.11265418 -3.13962715 14.93346703 -1.19140625 20.17578125 C1.84500443 25.75479187 6.16813627 28.67324615 12 31 C30.82867699 35.89671969 49.13720305 28.55187027 65.18505859 19.17578125 C68.00963546 17.34592354 70.47931242 15.2266727 73 13 C73.99 13.495 73.99 13.495 75 14 C60.99266518 28.55799172 40.76373006 37.62436898 20.62231445 38.33618164 C11.6029046 38.4919759 5.11557277 37.48928996 -1.875 31.5625 C-2.57625 30.716875 -3.2775 29.87125 -4 29 C-4.598125 28.29875 -5.19625 27.5975 -5.8125 26.875 C-8.20487449 21.08293545 -7.78029826 14.50394058 -5.75 8.625 C-4.3271293 5.31631503 -2.42537519 2.67627607 0 0 Z " fill="#EDDB2E" transform="translate(39,97)"/>
<path d="M0 0 C2.64 0 5.28 0 8 0 C8 2.31 8 4.62 8 7 C9.31322788 6.02180976 10.62556152 5.0424189 11.9375 4.0625 C12.66839844 3.51722656 13.39929688 2.97195312 14.15234375 2.41015625 C15.9134453 1.13092062 15.9134453 1.13092062 17 0 C18.51928038 -0.07179964 20.04167482 -0.08392007 21.5625 -0.0625 C22.38878906 -0.05347656 23.21507813 -0.04445313 24.06640625 -0.03515625 C24.70449219 -0.02355469 25.34257813 -0.01195313 26 0 C26 0.66 26 1.32 26 2 C24.390625 3.4375 24.390625 3.4375 22.25 5 C21.55390625 5.515625 20.8578125 6.03125 20.140625 6.5625 C18.14898379 7.89995249 16.16972077 8.98355423 14 10 C17.93470135 14.71207396 21.8822812 18.97111356 26.71484375 22.7734375 C27.13894531 23.17820312 27.56304687 23.58296875 28 24 C28 24.66 28 25.32 28 26 C24.52250021 26.49678568 22.36608332 26.77054919 19 26 C16.29508956 23.89618077 14.11990582 21.62719544 11.84765625 19.06640625 C10.1648146 16.92879369 10.1648146 16.92879369 8 16 C8 19.3 8 22.6 8 26 C5.36 26 2.72 26 0 26 C0 17.42 0 8.84 0 0 Z " fill="#969596" transform="translate(75,84)"/>
<path d="M0 0 C-3.0753511 2.05023407 -5.06152832 2.59232534 -8.625 3.375 C-26.67602175 7.77979478 -43.91189142 19.54755291 -53.75 35.5 C-56.90214915 41.96283835 -57.38554221 48.50615146 -55.26171875 55.39453125 C-53.33062611 59.67790136 -50.95912084 62.3605861 -47 65 C-51.8421871 64.83302803 -54.84341405 64.65789511 -58.375 61.1875 C-63.10627186 56.046537 -63.55688564 51.37521477 -63.44140625 44.5234375 C-62.26164356 35.10621671 -56.93876951 28.09419375 -50 22 C-49.2575 21.195625 -48.515 20.39125 -47.75 19.5625 C-39.63303196 11.9989616 -31.42071456 7.62519567 -21 4 C-19.65999467 3.43216086 -18.32500421 2.85201278 -17 2.25 C-11.28816608 -0.1299308 -6.10039232 -0.11961554 0 0 Z " fill="#1815AF" transform="translate(109,55)"/>
<path d="M0 0 C3.51494706 2.84052155 5.39246375 5.35753112 6.140625 9.875 C6.53972409 17.14065007 4.46227207 22.25428989 0.73046875 28.3984375 C0.40046875 27.7384375 0.07046875 27.0784375 -0.26953125 26.3984375 C0.22546875 24.9134375 0.22546875 24.9134375 0.73046875 23.3984375 C1.24900693 18.4595739 1.282464 14.54488916 -0.89453125 10.0234375 C-6.96331354 3.31583602 -14.14896592 0.84581321 -22.98046875 0.07421875 C-32.32414643 -0.31052092 -40.42053852 1.2528546 -49.26953125 4.3984375 C-50.60951172 4.84896484 -50.60951172 4.84896484 -51.9765625 5.30859375 C-57.83485186 7.43971948 -62.78675023 10.49080618 -67.921875 14.0078125 C-70.26953125 15.3984375 -70.26953125 15.3984375 -73.26953125 15.3984375 C-56.33682527 -1.85548512 -22.03353366 -15.21677175 0 0 Z " fill="#438D26" transform="translate(141.26953125,62.6015625)"/>
<path d="M0 0 C4.91334183 -0.35095299 7.85074216 0.32027098 12 3 C16.48081525 7.51214962 19.14278546 10.7099546 19.25 17.1875 C19.07292063 28.5648497 11.88374219 37.03493583 4.375 45.125 C-7.39086728 56.27401599 -23.63441836 64.40488794 -40 65 C-37.10090691 63.06727127 -35.11470348 62.38033603 -31.8125 61.4375 C-14.18165519 55.66740534 0.04815187 44.93997766 9.28125 28.75390625 C12.16026704 22.98558996 12.76101157 17.39294054 13 11 C12.34 11 11.68 11 11 11 C10.62875 10.278125 10.2575 9.55625 9.875 8.8125 C7.59590417 5.39385626 5.16322982 4.01906418 1.64453125 2.015625 C1.10183594 1.68046875 0.55914062 1.3453125 0 1 C0 0.67 0 0.34 0 0 Z " fill="#BE1A16" transform="translate(114,71)"/>
<path d="M0 0 C2.64 0 5.28 0 8 0 C8 6.93 8 13.86 8 21 C13.61 21 19.22 21 25 21 C25 22.65 25 24.3 25 26 C16.75 26 8.5 26 0 26 C0 17.42 0 8.84 0 0 Z " fill="#F0F0F0" transform="translate(247,75)"/>
<path d="M0 0 C0.99 0.33 1.98 0.66 3 1 C3 5.62 3 10.24 3 15 C3.66 15 4.32 15 5 15 C6.5078125 17.1875 6.5078125 17.1875 8.125 20 C8.66382813 20.928125 9.20265625 21.85625 9.7578125 22.8125 C10.16773438 23.534375 10.57765625 24.25625 11 25 C10.01 25.99 9.02 26.98 8 28 C8.66 29.32 9.32 30.64 10 32 C17.92 32.33 25.84 32.66 34 33 C31.51562584 35.48437416 29.98995932 35.28134837 26.59179688 35.32958984 C25.88087891 35.3239502 25.16996094 35.31831055 24.4375 35.3125 C23.34985352 35.30404053 23.34985352 35.30404053 22.24023438 35.29541016 C12.92617262 35.084864 5.82416834 32.5358232 -1 26 C-4.3962542 21.22401753 -4.71616007 16.67347588 -4 11 C-3.0173153 7.17646318 -1.76623605 3.5324721 0 0 Z " fill="#171405" transform="translate(40,95)"/>
<path d="M0 0 C6.81598387 -0.33278764 11.92122066 -0.24201565 18 3 C17.67 3.99 17.34 4.98 17 6 C17.66 6 18.32 6 19 6 C19 6.66 19 7.32 19 8 C17.68 8 16.36 8 15 8 C15 9.32 15 10.64 15 12 C15.66 12 16.32 12 17 12 C17 13.32 17 14.64 17 16 C18.32 16.33 19.64 16.66 21 17 C22.75936386 23.86151903 21.32851306 29.99119947 17.875 36.0625 C17.25625 37.031875 16.6375 38.00125 16 39 C15.34 39 14.68 39 14 39 C14.2165625 38.47792969 14.433125 37.95585938 14.65625 37.41796875 C16.97830013 31.27958623 17.93377451 25.54657128 17 19 C15.36547907 15.50273479 15.36547907 15.50273479 13 13 C12.525625 12.4225 12.05125 11.845 11.5625 11.25 C8.16687804 8.53350243 5.30548052 8 1 8 C2.2375 8.7115625 2.2375 8.7115625 3.5 9.4375 C4.325 9.953125 5.15 10.46875 6 11 C6 11.33 6 11.66 6 12 C2.8125 12.375 2.8125 12.375 -1 12 C-3.1403498 10.18811972 -4.38988302 8.34198833 -6 6 C-4.625 4.5 -4.625 4.5 -3 3 C-2.34 3 -1.68 3 -1 3 C-0.67 2.01 -0.34 1.02 0 0 Z " fill="#050202" transform="translate(115,64)"/>
<path d="M0 0 C2 1.3125 2 1.3125 4 3 C4 3.99 4 4.98 4 6 C4.66 6 5.32 6 6 6 C7.23883248 17.65420182 2.79975047 25.62086446 -4.1875 34.6875 C-7.55458515 38.85152838 -7.55458515 38.85152838 -11 40 C-11.33 40.99 -11.66 41.98 -12 43 C-14.0360478 44.56504406 -16.02194244 45.94989874 -18.1875 47.3125 C-18.80810303 47.70767822 -19.42870605 48.10285645 -20.06811523 48.51000977 C-26.41965305 52.44244709 -33.04829292 55.29211921 -40 58 C-41.66682134 58.66627986 -43.33354744 59.33279832 -45 60 C-45 60.66 -45 61.32 -45 62 C-48.96 62 -52.92 62 -57 62 C-57 61.34 -57 60.68 -57 60 C-60.63 60 -64.26 60 -68 60 C-68 59.67 -68 59.34 -68 59 C-66.74445313 58.89042969 -65.48890625 58.78085938 -64.1953125 58.66796875 C-62.50515814 58.50834306 -60.81505668 58.34815659 -59.125 58.1875 C-58.30257812 58.11724609 -57.48015625 58.04699219 -56.6328125 57.97460938 C-39.77274892 56.32811879 -20.77130262 48.43715408 -9 36 C-7.73455264 33.86483495 -7.73455264 33.86483495 -7 32 C-6.01 32 -5.02 32 -4 32 C-3.896875 31.4225 -3.79375 30.845 -3.6875 30.25 C-3 28 -3 28 -1.625 26.1875 C1.86758009 21.48594988 3.50792226 16.79566886 3.3046875 10.9921875 C2.79956076 7.68943576 1.44141801 5.0029542 0 2 C0 1.34 0 0.68 0 0 Z " fill="#622207" transform="translate(121,76)"/>
<path d="M0 0 C6.27564861 0.59768082 10.15963513 2.91093718 14.3125 7.625 C16.76425336 11.07561584 17.11731253 12.80988639 17.0625 17 C17.05347656 17.886875 17.04445312 18.77375 17.03515625 19.6875 C17.02355469 20.450625 17.01195312 21.21375 17 22 C17 22.66 17 23.32 17 24 C17.99 21.69 18.98 19.38 20 17 C21.33566756 20.03560809 20.91578966 21.26198771 19.875 24.5 C17.95038194 28.09262038 16.40177298 29.81937629 13 32 C12.34 32 11.68 32 11 32 C10.93941406 31.41992188 10.87882813 30.83984375 10.81640625 30.2421875 C10.33983439 25.79907137 9.78991334 21.40094577 9 17 C8.01 16.67 7.02 16.34 6 16 C6 14.68 6 13.36 6 12 C5.34 12 4.68 12 4 12 C3.67 10.68 3.34 9.36 3 8 C3.66 7.67 4.32 7.34 5 7 C5.99 7.33 6.98 7.66 8 8 C8 7.34 8 6.68 8 6 C7.34 6 6.68 6 6 6 C6 5.34 6 4.68 6 4 C4.02 3.01 2.04 2.02 0 1 C0 0.67 0 0.34 0 0 Z " fill="#030801" transform="translate(126,64)"/>
<path d="M0 0 C2.1640625 0.4140625 2.1640625 0.4140625 4.7265625 2.5390625 C6.41826019 5.92245788 6.78602181 7.68230664 6.1640625 11.4140625 C4.7265625 14.2890625 4.7265625 14.2890625 2.1640625 16.4140625 C-0.95927806 17.06240937 -3.70923279 17.02992858 -6.8359375 16.4140625 C-8.8984375 14.9765625 -8.8984375 14.9765625 -9.8359375 12.4140625 C-10.79031412 4.75138647 -10.79031412 4.75138647 -8.58984375 1.66796875 C-5.78855355 -0.33473538 -3.34870572 -0.1199862 0 0 Z " fill="#111111" transform="translate(360.8359375,79.5859375)"/>
<path d="M0 0 C-0.41957732 3.35661854 -1.36970021 5.69730176 -3.0625 8.5625 C-6.0985806 14.44560123 -6.18040301 21.11161361 -4.26953125 27.40625 C-2.31795479 31.67582135 0.04202228 34.36134819 4 37 C-0.8421871 36.83302803 -3.84341405 36.65789511 -7.375 33.1875 C-12.21146824 27.93223144 -12.41460918 23.26333422 -12.3359375 16.28515625 C-11.86804146 11.70956826 -10.42740676 8.86867952 -8 5 C-7.34 5 -6.68 5 -6 5 C-5.566875 4.0409375 -5.566875 4.0409375 -5.125 3.0625 C-3.72314735 0.49243681 -2.91896073 0 0 0 Z " fill="#1916C8" transform="translate(58,83)"/>
<path d="M0 0 C4.91334183 -0.35095299 7.85074216 0.32027098 12 3 C16.48081525 7.51214962 19.14278546 10.7099546 19.25 17.1875 C19.15542826 25.24711421 15.99516684 30.88092062 11 37 C10.01 37 9.02 37 8 37 C9.78755365 30.36051502 9.78755365 30.36051502 11.03125 28.25 C12.42893957 25.00375325 12.46698096 21.73300299 12.625 18.25 C12.68300781 17.20392578 12.68300781 17.20392578 12.7421875 16.13671875 C12.83598624 14.42489182 12.91906174 12.71248318 13 11 C12.34 11 11.68 11 11 11 C10.62875 10.278125 10.2575 9.55625 9.875 8.8125 C7.59590417 5.39385626 5.16322982 4.01906418 1.64453125 2.015625 C1.10183594 1.68046875 0.55914062 1.3453125 0 1 C0 0.67 0 0.34 0 0 Z " fill="#E11311" transform="translate(114,71)"/>
<path d="M0 0 C0.99 0.495 0.99 0.495 2 1 C-12.0047518 15.55530715 -32.23885385 24.63065566 -52.37866211 25.33544922 C-59.46098758 25.46014618 -66.02627094 25.35319618 -72 21 C-72.33 20.34 -72.66 19.68 -73 19 C-72.13761719 19.2165625 -71.27523437 19.433125 -70.38671875 19.65625 C-59.81663518 22.06716663 -49.81211518 22.31423801 -39 22 C-39.495 20.515 -39.495 20.515 -40 19 C-38.97003906 18.74347656 -37.94007812 18.48695313 -36.87890625 18.22265625 C-28.74599828 16.08033867 -21.25114748 13.45942625 -13.8125 9.5 C-13.11906494 9.13269775 -12.42562988 8.76539551 -11.71118164 8.38696289 C-7.37455829 5.99439776 -3.71157225 3.27865169 0 0 Z " fill="#DBC83E" transform="translate(112,110)"/>
<path d="M0 0 C1.9375 1.5 1.9375 1.5 3 3 C2.34 3 1.68 3 1 3 C1 3.66 1 4.32 1 5 C0.27296875 5.15855469 -0.4540625 5.31710938 -1.203125 5.48046875 C-15.69988845 8.84446129 -29.1431635 14.61519987 -40 25 C-40 25.66 -40 26.32 -40 27 C-40.66 27 -41.32 27 -42 27 C-42.33 27.99 -42.66 28.98 -43 30 C-43.99 30.33 -44.98 30.66 -46 31 C-45.35330586 29.65686601 -44.68096422 28.32608822 -44 27 C-43.38125 25.7934375 -43.38125 25.7934375 -42.75 24.5625 C-40.57391202 21.37608545 -38.07133453 19.26084347 -35 17 C-34.1646875 16.36707031 -33.329375 15.73414062 -32.46875 15.08203125 C-23.29502039 8.50999109 -14.03750189 5.20750038 -3 3 C-6.63 3 -10.26 3 -14 3 C-8.94638569 0.47319285 -5.64432226 -0.40316588 0 0 Z " fill="#031227" transform="translate(109,53)"/>
<path d="M0 0 C0.76441406 -0.020625 1.52882813 -0.04125 2.31640625 -0.0625 C7.90675212 -0.100465 12.04727043 0.86179313 17.125 3.25 C17.785 4.24 18.445 5.23 19.125 6.25 C20.115 6.25 21.105 6.25 22.125 6.25 C24.27805957 10.10756507 25.51753254 12.80129785 25.125 17.25 C24.135 17.25 23.145 17.25 22.125 17.25 C21.19010397 15.81426681 20.26070506 14.37438031 19.37109375 12.91015625 C17.52147884 10.44593575 15.18371162 8.97936507 12.61328125 7.328125 C11.125 6.25 11.125 6.25 10.125 4.25 C4.93470058 2.99802682 -0.4351851 2.9316293 -5.75 2.6875 C-6.62914063 2.64431641 -7.50828125 2.60113281 -8.4140625 2.55664062 C-10.56755797 2.45130661 -12.72126064 2.35022351 -14.875 2.25 C-14.875 1.92 -14.875 1.59 -14.875 1.25 C-9.8806675 0.2607073 -5.07013945 0.03385736 0 0 Z " fill="#41A01C" transform="translate(119.875,58.75)"/>
<path d="M0 0 C1.8881543 -0.01836914 1.8881543 -0.01836914 3.81445312 -0.03710938 C9.97164784 -0.04684664 15.39673401 -0.00243093 21.1875 2.1875 C21.1875 2.8475 21.1875 3.5075 21.1875 4.1875 C20.0325 3.8575 18.8775 3.5275 17.6875 3.1875 C5.35110155 0.51493644 -6.0116408 1.99260663 -17.8125 6.1875 C-18.70582031 6.48785156 -19.59914063 6.78820312 -20.51953125 7.09765625 C-26.37782061 9.22878198 -31.32971898 12.27986868 -36.46484375 15.796875 C-38.8125 17.1875 -38.8125 17.1875 -41.8125 17.1875 C-36.72419809 12.00267204 -31.39000051 8.12778237 -25 4.75 C-24.35409912 4.40839844 -23.70819824 4.06679687 -23.04272461 3.71484375 C-15.280373 -0.26387951 -8.61851273 0.00437266 0 0 Z " fill="#469628" transform="translate(109.8125,60.8125)"/>
<path d="M0 0 C2.47978933 0.41329822 4.58298469 0.76740318 6.79199219 1.99951172 C9.60056291 3.27212592 12.00450696 3.42187793 15.078125 3.6328125 C16.23828125 3.71660156 17.3984375 3.80039063 18.59375 3.88671875 C20.40359375 4.00466797 20.40359375 4.00466797 22.25 4.125 C23.47203125 4.21136719 24.6940625 4.29773438 25.953125 4.38671875 C28.96830815 4.59872381 31.98381502 4.8028513 35 5 C35 5.66 35 6.32 35 7 C31.87351052 8.56324474 28.55529122 8.19120162 25.125 8.1875 C23.98285034 8.1862915 23.98285034 8.1862915 22.81762695 8.18505859 C15.04340467 8.101667 6.92855312 7.84381269 0 4 C0 2.68 0 1.36 0 0 Z " fill="#F8E526" transform="translate(38,125)"/>
<path d="M0 0 C1.125 3.75 1.125 3.75 0 6 C0.08811445 8.21138855 0.2429784 10.42042185 0.4375 12.625 C0.53933594 13.81351563 0.64117187 15.00203125 0.74609375 16.2265625 C0.82988281 17.14179687 0.91367187 18.05703125 1 19 C1.66 19 2.32 19 3 19 C2.67 18.34 2.34 17.68 2 17 C1.86584528 14.3276379 1.95681459 11.67749512 2 9 C2.66 8.67 3.32 8.34 4 8 C4.16435547 8.97839844 4.16435547 8.97839844 4.33203125 9.9765625 C5.75007663 17.79310533 7.22598082 23.23987841 14 28 C9.1578129 27.83302803 6.15658595 27.65789511 2.625 24.1875 C-1.37039243 19.84613784 -2.27708033 16.40351287 -2.25 10.5 C-2.25515625 9.3759375 -2.2603125 8.251875 -2.265625 7.09375 C-2.01284295 4.14958257 -1.53364541 2.48304495 0 0 Z " fill="#1817B7" transform="translate(48,92)"/>
<path d="M0 0 C1.670625 0.061875 1.670625 0.061875 3.375 0.125 C0.98528905 1.71814063 -0.8045232 2.67648877 -3.42578125 3.67578125 C-4.15603516 3.96259766 -4.88628906 4.24941406 -5.63867188 4.54492188 C-7.15709922 5.13448967 -8.67791374 5.71795007 -10.20117188 6.29492188 C-15.18132912 8.26687176 -18.65606057 10.52870317 -22.625 14.125 C-24.98619924 15.6429138 -27.23455961 16.9576684 -29.8125 18.0625 C-32.0918758 19.39868582 -32.55684686 20.75980376 -33.625 23.125 C-34.285 23.455 -34.945 23.785 -35.625 24.125 C-35.625 22.805 -35.625 21.485 -35.625 20.125 C-31.40277778 16.125 -31.40277778 16.125 -28.625 16.125 C-28.439375 15.361875 -28.25375 14.59875 -28.0625 13.8125 C-26.04850331 10.04720183 -23.51729941 9.66849804 -19.625 8.125 C-19.026875 7.444375 -18.42875 6.76375 -17.8125 6.0625 C-14.77583181 3.3728796 -11.81152516 3.19069654 -7.8671875 2.6171875 C-4.17038339 1.80569392 -4.22307585 0.14562331 0 0 Z " fill="#010134" transform="translate(91.625,55.875)"/>
<path d="M0 0 C4.91334183 -0.35095299 7.85074216 0.32027098 12 3 C16.48081525 7.51214962 19.14278546 10.7099546 19.25 17.1875 C19.19574129 23.10169986 18.29591993 27.36394378 14.3125 31.9375 C13.879375 32.288125 13.44625 32.63875 13 33 C13.45956272 30.855374 13.93639758 29.11215388 15.0234375 27.1953125 C17.30444027 22.06761828 16.40721177 15.68702021 15.125 10.375 C14.23221695 7.85907445 14.23221695 7.85907445 12 7 C11.67 8.32 11.34 9.64 11 11 C10.505 9.9171875 10.505 9.9171875 10 8.8125 C7.62292361 5.46973632 5.16219842 4.01847694 1.64453125 2.015625 C1.10183594 1.68046875 0.55914062 1.3453125 0 1 C0 0.67 0 0.34 0 0 Z " fill="#B71916" transform="translate(114,71)"/>
<path d="M0 0 C0.66 1.32 1.32 2.64 2 4 C-7.60391582 11.71596656 -20.68245983 16.55208945 -33 17 C-30.10090691 15.06727127 -28.11470348 14.38033603 -24.8125 13.4375 C-16.4874615 10.75759164 -6.25703245 6.25703245 0 0 Z " fill="#B51F18" transform="translate(107,119)"/>
<path d="M0 0 C2 1.3125 2 1.3125 4 3 C4 3.99 4 4.98 4 6 C4.66 6 5.32 6 6 6 C7.050825 15.88553886 4.27776032 23.08630034 -1.51171875 31.08984375 C-2.62019026 32.43970161 -3.80070132 33.73015434 -5 35 C-5.99 34.67 -6.98 34.34 -8 34 C-7.67 33.34 -7.34 32.68 -7 32 C-6.01 32 -5.02 32 -4 32 C-3.8453125 31.13375 -3.8453125 31.13375 -3.6875 30.25 C-3 28 -3 28 -1.625 26.1875 C1.86758009 21.48594988 3.50792226 16.79566886 3.3046875 10.9921875 C2.79956076 7.68943576 1.44141801 5.0029542 0 2 C0 1.34 0 0.68 0 0 Z " fill="#5B0302" transform="translate(121,76)"/>
<path d="M0 0 C1.45792884 -0.05399736 2.91642712 -0.09279177 4.375 -0.125 C5.18710937 -0.14820312 5.99921875 -0.17140625 6.8359375 -0.1953125 C9 0 9 0 11 2 C10.44444444 6.55555556 10.44444444 6.55555556 9 8 C7.48071962 8.07179964 5.95832518 8.08392007 4.4375 8.0625 C3.61121094 8.05347656 2.78492188 8.04445313 1.93359375 8.03515625 C1.29550781 8.02355469 0.65742188 8.01195313 0 8 C0 5.36 0 2.72 0 0 Z " fill="#2A2A2A" transform="translate(419,80)"/>
<path d="M0 0 C4.29 0 8.58 0 13 0 C13 1.98 13 3.96 13 6 C8.71 6 4.42 6 0 6 C0 4.02 0 2.04 0 0 Z " fill="#222222" transform="translate(318,90)"/>
<path d="M0 0 C0 0.66 0 1.32 0 2 C-2.64 2.99 -5.28 3.98 -8 5 C-8 5.66 -8 6.32 -8 7 C-11.96 7 -15.92 7 -20 7 C-20 6.34 -20 5.68 -20 5 C-23.63 5 -27.26 5 -31 5 C-31 4.67 -31 4.34 -31 4 C-29.081875 3.81824219 -29.081875 3.81824219 -27.125 3.6328125 C-25.41663581 3.4638534 -23.70830416 3.29456501 -22 3.125 C-21.16082031 3.04636719 -20.32164063 2.96773437 -19.45703125 2.88671875 C-15.42040361 2.47992682 -11.55281681 1.96265231 -7.625 0.9296875 C-4 0 -4 0 0 0 Z " fill="#511B05" transform="translate(84,131)"/>
<path d="M0 0 C1.32 0 2.64 0 4 0 C4 1.32 4 2.64 4 4 C5.32 4.33 6.64 4.66 8 5 C9.75936386 11.86151903 8.32851306 17.99119947 4.875 24.0625 C3.946875 25.5165625 3.946875 25.5165625 3 27 C2.34 27 1.68 27 1 27 C1.2165625 26.47792969 1.433125 25.95585938 1.65625 25.41796875 C4.15187793 18.8207301 5.81615315 11.53645182 3.09765625 4.74609375 C1.93079919 2.61429238 1.93079919 2.61429238 0 0 Z " fill="#2B0001" transform="translate(128,76)"/>
<path d="M0 0 C6.0546875 -0.1953125 6.0546875 -0.1953125 8 0 C10 2 10 2 10 5 C9.34 5 8.68 5 8 5 C8.33 6.65 8.66 8.3 9 10 C8.01 9.67 7.02 9.34 6 9 C5.67 8.34 5.34 7.68 5 7 C4.01 6.67 3.02 6.34 2 6 C2 7.32 2 8.64 2 10 C1.34 10 0.68 10 0 10 C0 6.7 0 3.4 0 0 Z " fill="#C1C1C1" transform="translate(202,110)"/>
<path d="M0 0 C5.69287715 1.35355121 9.42882402 3.34803857 13.984375 7.03125 C13.654375 7.69125 13.324375 8.35125 12.984375 9.03125 C12.283125 8.556875 11.581875 8.0825 10.859375 7.59375 C7.82356163 5.94385143 5.39268714 5.42756536 1.984375 5.03125 C3.221875 5.7428125 3.221875 5.7428125 4.484375 6.46875 C5.309375 6.984375 6.134375 7.5 6.984375 8.03125 C6.984375 8.36125 6.984375 8.69125 6.984375 9.03125 C3.796875 9.40625 3.796875 9.40625 -0.015625 9.03125 C-2.1559748 7.21936972 -3.40550802 5.37323833 -5.015625 3.03125 C-2.60461891 0.04038169 -2.60461891 0.04038169 0 0 Z " fill="#290001" transform="translate(114.015625,66.96875)"/>
<path d="M0 0 C0.79019531 0.00902344 1.58039063 0.01804688 2.39453125 0.02734375 C3.28205078 0.04474609 3.28205078 0.04474609 4.1875 0.0625 C1.1121489 2.11273407 -0.87402832 2.65482534 -4.4375 3.4375 C-9.23947169 4.57833206 -13.52964338 6.06068062 -17.97265625 8.1953125 C-19.8125 9.0625 -19.8125 9.0625 -22.8125 10.0625 C-22.8125 9.4025 -22.8125 8.7425 -22.8125 8.0625 C-23.4725 7.7325 -24.1325 7.4025 -24.8125 7.0625 C-22.4187703 6.07790929 -20.0227493 5.09971297 -17.625 4.125 C-16.95146484 3.84720703 -16.27792969 3.56941406 -15.58398438 3.28320312 C-10.33355999 1.15742154 -5.71375167 -0.08527988 0 0 Z " fill="#1B198E" transform="translate(104.8125,54.9375)"/>
<path d="M0 0 C1.37478516 0.01740234 1.37478516 0.01740234 2.77734375 0.03515625 C3.69644531 0.04417969 4.61554688 0.05320312 5.5625 0.0625 C6.27277344 0.07410156 6.98304688 0.08570312 7.71484375 0.09765625 C4.54531528 3.35774268 1.31546386 6.32003502 -2.28515625 9.09765625 C-3.27515625 8.43765625 -4.26515625 7.77765625 -5.28515625 7.09765625 C-3.06170492 0.13084209 -3.06170492 0.13084209 0 0 Z " fill="#E9E9E9" transform="translate(191.28515625,74.90234375)"/>
<path d="M0 0 C0.93199219 0.20496094 1.86398438 0.40992188 2.82421875 0.62109375 C11.22743895 2.39690065 19.398765 3.57936625 28 4 C27.67 4.66 27.34 5.32 27 6 C7.58995202 6.80225227 7.58995202 6.80225227 1 2 C0.67 1.34 0.34 0.68 0 0 Z " fill="#CBBC39" transform="translate(39,129)"/>
<path d="M0 0 C8.58 0.66 17.16 1.32 26 2 C26 2.66 26 3.32 26 4 C18.12355431 7.93822285 7.74294515 3.49916385 0 1 C0 0.67 0 0.34 0 0 Z " fill="#F3E33E" transform="translate(47,128)"/>
<path d="M0 0 C0.33 0 0.66 0 1 0 C1 4 1 8 1 12 C1.99 9.69 2.98 7.38 4 5 C5.51201989 8.43640884 4.58299141 10.81943064 3.27734375 14.21875 C2 16 2 16 -4 20 C-2.68 13.4 -1.36 6.8 0 0 Z " fill="#15320D" transform="translate(142,76)"/>
<path d="M0 0 C1.32 0.33 2.64 0.66 4 1 C4 2.32 4 3.64 4 5 C3 6 3 6 0.63671875 6.01953125 C-0.33652344 5.95121094 -1.30976562 5.88289063 -2.3125 5.8125 C-3.27800781 5.75707031 -4.24351563 5.70164062 -5.23828125 5.64453125 C-8 5 -8 5 -12 1 C-8.04 1.33 -4.08 1.66 0 2 C0 1.34 0 0.68 0 0 Z " fill="#020121" transform="translate(64,118)"/>
<path d="M0 0 C2.97 0 5.94 0 9 0 C9 0.66 9 1.32 9 2 C7.02 2 5.04 2 3 2 C3 2.66 3 3.32 3 4 C4.65 4 6.3 4 8 4 C8 4.66 8 5.32 8 6 C6.02 6 4.04 6 2 6 C2 6.99 2 7.98 2 9 C3.98 9 5.96 9 8 9 C8 9.33 8 9.66 8 10 C5.36 10 2.72 10 0 10 C0 6.7 0 3.4 0 0 Z " fill="#AAAAAA" transform="translate(262,110)"/>
<path d="M0 0 C3.3 0 6.6 0 10 0 C10.33 1.32 10.66 2.64 11 4 C10 5 10 5 7.71484375 5.09765625 C6.34005859 5.08025391 6.34005859 5.08025391 4.9375 5.0625 C4.01839844 5.05347656 3.09929687 5.04445313 2.15234375 5.03515625 C1.44207031 5.02355469 0.73179687 5.01195313 0 5 C0 3.35 0 1.7 0 0 Z " fill="#323232" transform="translate(318,80)"/>
<path d="M0 0 C0.66 0.33 1.32 0.66 2 1 C-4.18054311 7.0358921 -10.01807434 11.62041871 -18 15 C-18.99 14.34 -19.98 13.68 -21 13 C-19.98679687 12.48050781 -18.97359375 11.96101563 -17.9296875 11.42578125 C-16.5779249 10.72173823 -15.22637359 10.01728941 -13.875 9.3125 C-13.20984375 8.97283203 -12.5446875 8.63316406 -11.859375 8.28320312 C-7.41041296 5.94967892 -3.75554454 3.34021173 0 0 Z " fill="#C3B454" transform="translate(112,110)"/>
<path d="M0 0 C2.0625 0.4375 2.0625 0.4375 4 1 C-2.86225849 7.22390887 -7.93558925 7.15840718 -17 7 C-13.71240567 5.22485827 -10.36654728 4.07600723 -6.8125 2.9375 C-3.116813 1.98540534 -3.116813 1.98540534 0 0 Z " fill="#4D0503" transform="translate(96,129)"/>
<path d="M0 0 C2.31 0 4.62 0 7 0 C7 0.99 7 1.98 7 3 C4.03 2.505 4.03 2.505 1 2 C1 2.66 1 3.32 1 4 C2.65 4.33 4.3 4.66 6 5 C6.5625 6.9375 6.5625 6.9375 7 9 C6 10 6 10 3.0625 10.125 C0 10 0 10 -2 9 C-2 8.34 -2 7.68 -2 7 C0.38564077 7.57584432 2.66682784 8.22227595 5 9 C3.60804085 6.2160817 1.84424221 6.02101003 -1 5 C-0.67 3.35 -0.34 1.7 0 0 Z " fill="#A8A8A8" transform="translate(173,110)"/>
<path d="M0 0 C2.375 -0.1875 2.375 -0.1875 5 0 C5.66 0.99 6.32 1.98 7 3 C7.99 3 8.98 3 10 3 C12.15305957 6.85756507 13.39253254 9.55129785 13 14 C12.34 14 11.68 14 11 14 C10.67 13.154375 10.34 12.30875 10 11.4375 C7.71735296 7.51420039 5.1256501 5.25931441 1.64453125 2.41796875 C1.10183594 1.95003906 0.55914062 1.48210938 0 1 C0 0.67 0 0.34 0 0 Z " fill="#3DA60F" transform="translate(132,62)"/>
<path d="M0 0 C0.65625 1.75390625 0.65625 1.75390625 1 4 C-1.86319204 9.80719999 -6.66342414 13.58459145 -12 17 C-12.66 16.67 -13.32 16.34 -14 16 C-13.40832031 15.43152344 -12.81664063 14.86304687 -12.20703125 14.27734375 C-7.5968811 9.77248251 -3.5499655 5.38220575 0 0 Z " fill="#460202" transform="translate(128,103)"/>
<path d="M0 0 C0.70705078 -0.01224609 1.41410156 -0.02449219 2.14257812 -0.03710938 C6.2265619 -0.04861355 8.18167586 0.30958793 11.9375 2.1875 C2.6975 2.5175 -6.5425 2.8475 -16.0625 3.1875 C-11.00357675 -0.1851155 -5.94007005 0.00544461 0 0 Z " fill="#0E3304" transform="translate(114.0625,61.8125)"/>
<path d="M0 0 C2.31 0.33 4.62 0.66 7 1 C7 1.66 7 2.32 7 3 C4.03 2.505 4.03 2.505 1 2 C1 2.66 1 3.32 1 4 C3.97 4.495 3.97 4.495 7 5 C6.67 6.65 6.34 8.3 6 10 C4.02 10 2.04 10 0 10 C-0.33 9.01 -0.66 8.02 -1 7 C0.98 7.66 2.96 8.32 5 9 C3.60804085 6.2160817 1.84424221 6.02101003 -1 5 C-0.67 3.35 -0.34 1.7 0 0 Z " fill="#B3B3B3" transform="translate(279,110)"/>
<path d="M0 0 C1 3 1 3 0.5625 5.5625 C-0.17371465 10.06158952 -0.08088902 14.45223934 0 19 C-0.66 19 -1.32 19 -2 19 C-3.42415121 14.54952747 -4.60199686 10.71564211 -4 6 C-2 2.625 -2 2.625 0 0 Z " fill="#1714DC" transform="translate(51,92)"/>
<path d="M0 0 C1.670625 0.37125 1.670625 0.37125 3.375 0.75 C3.705 1.41 4.035 2.07 4.375 2.75 C1.735 2.75 -0.905 2.75 -3.625 2.75 C-3.625 4.07 -3.625 5.39 -3.625 6.75 C-1.315 7.08 0.995 7.41 3.375 7.75 C3.045 8.41 2.715 9.07 2.375 9.75 C-1 9.875 -1 9.875 -4.625 9.75 C-6.625 7.75 -6.625 7.75 -6.9375 4.75 C-6.834375 3.76 -6.73125 2.77 -6.625 1.75 C-3.625 -0.25 -3.625 -0.25 0 0 Z " fill="#B3B3B3" transform="translate(251.625,110.25)"/>
<path d="M0 0 C4.85794252 -0.34699589 7.87651904 0.37596666 12 3 C13.375 5.1875 13.375 5.1875 14 7 C13.34 7 12.68 7 12 7 C11.67 8.32 11.34 9.64 11 11 C10.505 9.9171875 10.505 9.9171875 10 8.8125 C7.62292361 5.46973632 5.16219842 4.01847694 1.64453125 2.015625 C1.10183594 1.68046875 0.55914062 1.3453125 0 1 C0 0.67 0 0.34 0 0 Z " fill="#A31D1D" transform="translate(114,71)"/>
<path d="M0 0 C0.99 0 1.98 0 3 0 C3.66 1.98 4.32 3.96 5 6 C5.66 6 6.32 6 7 6 C7.1546875 5.0409375 7.1546875 5.0409375 7.3125 4.0625 C7.539375 3.381875 7.76625 2.70125 8 2 C8.99 1.67 9.98 1.34 11 1 C9.94124926 4.40312738 8.99097846 7.01353231 7 10 C2.57320993 8.52440331 2.08567304 6.09942632 0 2 C0 1.34 0 0.68 0 0 Z " fill="#ACACAC" transform="translate(218,110)"/>
<path d="M0 0 C0 0.66 0 1.32 0 2 C-0.99 2 -1.98 2 -3 2 C-3 2.66 -3 3.32 -3 4 C-5.24150624 5.6404154 -7.4678831 7.14662087 -9.8125 8.625 C-10.77639648 9.25535156 -10.77639648 9.25535156 -11.75976562 9.8984375 C-16.61854454 13 -16.61854454 13 -20 13 C-6.35483871 0 -6.35483871 0 0 0 Z " fill="#477F35" transform="translate(88,65)"/>
<path d="M0 0 C2.64 0 5.28 0 8 0 C8 0.66 8 1.32 8 2 C6.02 2 4.04 2 2 2 C2 2.99 2 3.98 2 5 C3.65 5 5.3 5 7 5 C7 5.33 7 5.66 7 6 C5.35 6 3.7 6 2 6 C2 6.99 2 7.98 2 9 C3.98 9 5.96 9 8 9 C8 9.33 8 9.66 8 10 C5.36 10 2.72 10 0 10 C0 6.7 0 3.4 0 0 Z " fill="#B9B9B9" transform="translate(187,110)"/>
<path d="M0 0 C0.33 0 0.66 0 1 0 C1 5.28 1 10.56 1 16 C-0.32 16.33 -1.64 16.66 -3 17 C-3.33 13.37 -3.66 9.74 -4 6 C-3.01 6.99 -2.02 7.98 -1 9 C-0.67 6.03 -0.34 3.06 0 0 Z " fill="#333333" transform="translate(377,75)"/>
<path d="M0 0 C0.99 0.33 1.98 0.66 3 1 C2.278125 1.55429688 1.55625 2.10859375 0.8125 2.6796875 C-0.115625 3.40414062 -1.04375 4.12859375 -2 4.875 C-2.928125 5.59429687 -3.85625 6.31359375 -4.8125 7.0546875 C-5.8953125 8.01761719 -5.8953125 8.01761719 -7 9 C-7 9.66 -7 10.32 -7 11 C-7.66 11 -8.32 11 -9 11 C-9.33 11.99 -9.66 12.98 -10 14 C-10.99 14.33 -11.98 14.66 -13 15 C-12.35330586 13.65686601 -11.68096422 12.32608822 -11 11 C-10.38125 9.7934375 -10.38125 9.7934375 -9.75 8.5625 C-7.22180232 4.86049625 -4.04830687 2.02415344 0 0 Z " fill="#0E1F31" transform="translate(76,69)"/>
<path d="M0 0 C0.99 0.33 1.98 0.66 3 1 C1.71034824 2.37562854 0.37310707 3.70766393 -1 5 C-1.66 5 -2.32 5 -3 5 C-3.33 5.99 -3.66 6.98 -4 8 C-6.8125 10.25 -6.8125 10.25 -10 12 C-12.19921875 11.609375 -12.19921875 11.609375 -14 11 C-13.24074219 10.45730469 -12.48148437 9.91460937 -11.69921875 9.35546875 C-10.70535156 8.64003906 -9.71148437 7.92460938 -8.6875 7.1875 C-7.70136719 6.47980469 -6.71523437 5.77210937 -5.69921875 5.04296875 C-3.59942813 3.45369163 -1.77965031 1.92542371 0 0 Z " fill="#5B0E02" transform="translate(113,111)"/>
<path d="M0 0 C0.33 0 0.66 0 1 0 C1.02578125 0.72445312 1.0515625 1.44890625 1.078125 2.1953125 C1.43478562 8.27475489 1.99118083 12.1658357 6 17 C6.5775 17.78375 7.155 18.5675 7.75 19.375 C8.1625 19.91125 8.575 20.4475 9 21 C5.57449642 20.80969425 4.20452963 20.19347397 1.6875 17.8125 C-1.47858031 12.6628513 -0.28534399 5.78614208 0 0 Z " fill="#06044F" transform="translate(45,98)"/>
<path d="M0 0 C0 1.32 0 2.64 0 4 C-6.435 5.98 -6.435 5.98 -13 8 C-13 7.34 -13 6.68 -13 6 C-12.01 6 -11.02 6 -10 6 C-10 5.01 -10 4.02 -10 3 C-8.70990357 2.49596232 -7.41786211 1.99690074 -6.125 1.5 C-5.04605469 1.08234375 -5.04605469 1.08234375 -3.9453125 0.65625 C-2 0 -2 0 0 0 Z " fill="#44892F" transform="translate(98,61)"/>
<path d="M0 0 C2 1 2 1 3 3 C0.44013121 3.84226 -2.12239015 4.67398551 -4.6875 5.5 C-5.7693457 5.85771484 -5.7693457 5.85771484 -6.87304688 6.22265625 C-10.69407657 7.44398994 -13.93442056 8.32075577 -18 8 C-14.15474797 5.43649865 -10.19947612 4.37630623 -5.8125 3 C-2.84774286 2.07464653 -2.84774286 2.07464653 0 0 Z " fill="#97241F" transform="translate(92,128)"/>
<path d="M0 0 C3.77727089 1.81309003 7.37269822 3.9073259 11 6 C10.01 6.66 9.02 7.32 8 8 C6.824375 7.2265625 6.824375 7.2265625 5.625 6.4375 C4.75875 5.963125 3.8925 5.48875 3 5 C0.84188612 5.94729537 0.84188612 5.94729537 -1 8 C-1.66 6.68 -2.32 5.36 -3 4 C-2.01 3.67 -1.02 3.34 0 3 C0 2.01 0 1.02 0 0 Z " fill="#E2D339" transform="translate(38,121)"/>
<path d="M0 0 C-1.38877354 3.35620271 -2.91677965 5.07298728 -6 7 C-6.66 7 -7.32 7 -8 7 C-8 6.34 -8 5.68 -8 5 C-9.32 5.33 -10.64 5.66 -12 6 C-7.91466721 1.69383841 -6.09114656 0 0 0 Z " fill="#161696" transform="translate(82,63)"/>
<path d="M0 0 C0.33 0 0.66 0 1 0 C0.85055259 7.02402808 -2.49903912 10.81743147 -7 16 C-7.99 15.67 -8.98 15.34 -10 15 C-9.67 14.34 -9.34 13.68 -9 13 C-8.01 13 -7.02 13 -6 13 C-5.8453125 12.13375 -5.8453125 12.13375 -5.6875 11.25 C-4.89522052 8.65708532 -3.63033505 7.15204226 -2 5 C-1.28837557 3.35202764 -0.60968047 1.68834592 0 0 Z " fill="#370503" transform="translate(123,95)"/>
<path d="M0 0 C0.33 0.66 0.66 1.32 1 2 C0.2884375 3.4540625 0.2884375 3.4540625 -0.4375 4.9375 C-2.70443259 9.80110083 -2.25650783 14.74633969 -2 20 C-2.66 20 -3.32 20 -4 20 C-4 17.03 -4 14.06 -4 11 C-4.66 11 -5.32 11 -6 11 C-4.74194623 6.49197399 -3.09592835 3.5087188 0 0 Z " fill="#ABA04E" transform="translate(39,97)"/>
<path d="M0 0 C-2.31881505 2.67901932 -4.31814468 3.66204403 -7.6875 4.6875 C-8.89986328 5.06455078 -8.89986328 5.06455078 -10.13671875 5.44921875 C-11.05904297 5.72185547 -11.05904297 5.72185547 -12 6 C-12 4.68 -12 3.36 -12 2 C-7.8803623 0.70756464 -4.33168317 -0.26252625 0 0 Z " fill="#E0CF4F" transform="translate(94,124)"/>
<path d="M0 0 C0.66 0.33 1.32 0.66 2 1 C-1.08065427 4.25669165 -3.89806503 7.10679924 -8 9 C-9.32 8.67 -10.64 8.34 -12 8 C-8.04 5.36 -4.08 2.72 0 0 Z " fill="#420102" transform="translate(112,120)"/>
<path d="M0 0 C2.64 0 5.28 0 8 0 C8.33 0.66 8.66 1.32 9 2 C8.01 3.485 8.01 3.485 7 5 C4.375 5.1875 4.375 5.1875 2 5 C2 3.68 2 2.36 2 1 C1.34 0.67 0.68 0.34 0 0 Z " fill="#666666" transform="translate(202,110)"/>
<path d="M0 0 C0.66 0.33 1.32 0.66 2 1 C-0.13802098 3.32509781 -2.18598137 4.82167236 -5 6.25 C-6.0209375 6.78367187 -6.0209375 6.78367187 -7.0625 7.328125 C-9 8 -9 8 -12 7 C-10.56542672 6.0165504 -9.12722594 5.03839079 -7.6875 4.0625 C-6.88699219 3.51722656 -6.08648437 2.97195312 -5.26171875 2.41015625 C-3 1 -3 1 0 0 Z " fill="#04123C" transform="translate(89,61)"/>
<path d="M0 0 C4.62 0 9.24 0 14 0 C14 0.66 14 1.32 14 2 C16.97 2 19.94 2 23 2 C23 2.33 23 2.66 23 3 C19.04 3 15.08 3 11 3 C11 2.34 11 1.68 11 1 C7.37 1 3.74 1 0 1 C0 0.67 0 0.34 0 0 Z " fill="#2A1300" transform="translate(53,135)"/>
<path d="M0 0 C2.66666667 2.66666667 5.33333333 5.33333333 8 8 C6.081875 7.8453125 6.081875 7.8453125 4.125 7.6875 C3.04605469 7.60048828 3.04605469 7.60048828 1.9453125 7.51171875 C0 7 0 7 -2 4 C-1.34 4 -0.68 4 0 4 C0 2.68 0 1.36 0 0 Z " fill="#18188E" transform="translate(54,112)"/>
<path d="M0 0 C0.66 0 1.32 0 2 0 C2.16682272 4.92127034 2.24828052 8.50343896 0 13 C-0.33 13 -0.66 13 -1 13 C-1.02696365 11.20841511 -1.04637917 9.41671527 -1.0625 7.625 C-1.07410156 6.62726563 -1.08570312 5.62953125 -1.09765625 4.6015625 C-1 2 -1 2 0 0 Z " fill="#EEDE42" transform="translate(33,108)"/>
<path d="M0 0 C1.32 0 2.64 0 4 0 C4 1.32 4 2.64 4 4 C4.66 4 5.32 4 6 4 C6 8.29 6 12.58 6 17 C5.67 17 5.34 17 5 17 C4.96132812 16.03900391 4.96132812 16.03900391 4.921875 15.05859375 C4.5207247 8.9410516 3.42853112 5.0874978 0 0 Z " fill="#440100" transform="translate(128,76)"/>
<path d="M0 0 C0.66 0.33 1.32 0.66 2 1 C0.40423801 2.50893816 -1.20189911 4.00691076 -2.8125 5.5 C-3.70582031 6.3353125 -4.59914063 7.170625 -5.51953125 8.03125 C-8 10 -8 10 -11 10 C-11 9.34 -11 8.68 -11 8 C-9.1015625 6.5625 -9.1015625 6.5625 -6.625 5 C-4.15047838 3.42887516 -2.07616959 2.07616959 0 0 Z " fill="#AB945D" transform="translate(112,110)"/>
<path d="M0 0 C-3.08728504 2.05819003 -4.35975238 2.35931563 -7.9375 2.6875 C-8.79214844 2.77386719 -9.64679688 2.86023437 -10.52734375 2.94921875 C-12.90952136 2.99814183 -14.73509263 2.69891573 -17 2 C-11.16200408 0.30167391 -6.06892629 -0.25287193 0 0 Z " fill="#14165B" transform="translate(109,55)"/>
<path d="M0 0 C0.33 0 0.66 0 1 0 C1.66 3.96 2.32 7.92 3 12 C2.01 11.67 1.02 11.34 0 11 C-1.62651522 7.74696956 -1.11453156 4.60774398 -1 1 C-0.67 0.67 -0.34 0.34 0 0 Z " fill="#1811AC" transform="translate(51,100)"/>
<path d="M0 0 C1.98 0 3.96 0 6 0 C6 1.66666667 6 3.33333333 6 5 C4.02 5 2.04 5 0 5 C0 3.35 0 1.7 0 0 Z " fill="#3D3D3D" transform="translate(189,114)"/>
<path d="M0 0 C1.5 1.3125 1.5 1.3125 3 3 C3 3.99 3 4.98 3 6 C1.02 6 -0.96 6 -3 6 C-1.125 1.125 -1.125 1.125 0 0 Z " fill="#2D2D2D" transform="translate(291,85)"/>
<path d="M0 0 C0.8353125 0.37125 0.8353125 0.37125 1.6875 0.75 C-3.9375 5.75 -3.9375 5.75 -7.3125 5.75 C-7.3125 5.09 -7.3125 4.43 -7.3125 3.75 C-3.10958131 -0.33617095 -3.10958131 -0.33617095 0 0 Z " fill="#350202" transform="translate(98.3125,129.25)"/>
<path d="M0 0 C0.99 0 1.98 0 3 0 C3 1.65 3 3.3 3 5 C1.35 5.33 -0.3 5.66 -2 6 C-1.34 4.02 -0.68 2.04 0 0 Z " fill="#CE1714" transform="translate(117,109)"/>
<path d="M0 0 C1.3778771 3.13153887 0.90076044 4.28779473 -0.25 7.625 C-2 11 -2 11 -5 13 C-3.58192622 8.52761347 -1.88695626 4.28853694 0 0 Z " fill="#082203" transform="translate(146,81)"/>
<path d="M0 0 C5.75 1.875 5.75 1.875 8 3 C8 3.66 8 4.32 8 5 C8.66 5.33 9.32 5.66 10 6 C7.69 6 5.38 6 3 6 C3 5.01 3 4.02 3 3 C1.56249809 1.31201173 1.56249809 1.31201173 0 0 Z " fill="#0B0A4F" transform="translate(56,115)"/>
<path d="M0 0 C0.66 0.33 1.32 0.66 2 1 C1.38125 1.0825 0.7625 1.165 0.125 1.25 C-2.18437567 1.81258459 -2.18437567 1.81258459 -3.25 4.0625 C-3.4975 4.701875 -3.745 5.34125 -4 6 C-5.65 6 -7.3 6 -9 6 C-6.45368965 3.02930459 -3.57769851 1.5224249 0 0 Z " fill="#092B05" transform="translate(86,68)"/>
<path d="M0 0 C0.66 0 1.32 0 2 0 C0.94124926 3.40312738 -0.00902154 6.01353231 -2 9 C-2.66 9 -3.32 9 -4 9 C-4 8.34 -4 7.68 -4 7 C-3.34 7 -2.68 7 -2 7 C-2.04125 6.21625 -2.0825 5.4325 -2.125 4.625 C-2 2 -2 2 0 0 Z " fill="#C4C4C4" transform="translate(227,111)"/>
<path d="M0 0 C0.99 0.33 1.98 0.66 3 1 C-1.455 4.465 -1.455 4.465 -6 8 C-6.66 7.67 -7.32 7.34 -8 7 C-6.74057614 5.80040625 -5.46704714 4.61560557 -4.1875 3.4375 C-3.12595703 2.44556641 -3.12595703 2.44556641 -2.04296875 1.43359375 C-1.36878906 0.96050781 -0.69460937 0.48742187 0 0 Z " fill="#477045" transform="translate(76,71)"/>
<path d="M0 0 C2.64 0 5.28 0 8 0 C8 0.66 8 1.32 8 2 C5.36 2.33 2.72 2.66 0 3 C0 2.01 0 1.02 0 0 Z " fill="#2E0908" transform="translate(110,69)"/>
<path d="M0 0 C1.33998047 0.06960937 1.33998047 0.06960937 2.70703125 0.140625 C3.60808594 0.17671875 4.50914062 0.2128125 5.4375 0.25 C6.46810547 0.31960937 6.46810547 0.31960937 7.51953125 0.390625 C6.03453125 1.875625 6.03453125 1.875625 4.51953125 3.390625 C4.18953125 3.060625 3.85953125 2.730625 3.51953125 2.390625 C-0.10106107 2.09706346 -2.35750837 2.53998181 -5.48046875 4.390625 C-3.17521711 0.50003419 -3.17521711 0.50003419 0 0 Z " fill="#D0D0D0" transform="translate(224.48046875,74.609375)"/>
<path d="M0 0 C0.66 0.33 1.32 0.66 2 1 C0.71937515 2.7074998 -0.61767557 4.37373596 -2 6 C-2.66 6 -3.32 6 -4 6 C-4 6.66 -4 7.32 -4 8 C-4.66 8 -5.32 8 -6 8 C-5.65120368 4.74456771 -4.97866739 3.98126893 -2.4375 1.75 C-1.633125 1.1725 -0.82875 0.595 0 0 Z " fill="#2E2E2E" transform="translate(226,80)"/>
<path d="M0 0 C2 1.125 2 1.125 4 3 C4.25 6.1875 4.25 6.1875 4 9 C1.47740939 7.02579865 1.0070192 6.03254358 0.3125 2.8125 C0.209375 1.884375 0.10625 0.95625 0 0 Z " fill="#390002" transform="translate(121,76)"/>
<path d="M0 0 C2.64 0.33 5.28 0.66 8 1 C4.96474514 3.02350324 3.80573798 3.32124018 0.3125 3.625 C-0.49574219 3.69976562 -1.30398437 3.77453125 -2.13671875 3.8515625 C-2.75160156 3.90054688 -3.36648437 3.94953125 -4 4 C-2.68 3.67 -1.36 3.34 0 3 C0 2.01 0 1.02 0 0 Z " fill="#010011" transform="translate(94,52)"/>
<path d="M0 0 C1.32 0 2.64 0 4 0 C3.34 1.32 2.68 2.64 2 4 C0.68 4 -0.64 4 -2 4 C-1.34 2.68 -0.68 1.36 0 0 Z " fill="#1919A8" transform="translate(78,63)"/>
<path d="M0 0 C-1.0625 1.5625 -1.0625 1.5625 -3 3 C-6.6875 2.6875 -6.6875 2.6875 -10 2 C-3.75 -1.125 -3.75 -1.125 0 0 Z " fill="#3E862B" transform="translate(108,59)"/>
<path d="M0 0 C0.33 0.99 0.66 1.98 1 3 C0 4 0 4 -2.9375 4.125 C-6 4 -6 4 -8 3 C-8 2.34 -8 1.68 -8 1 C-5.69 1.33 -3.38 1.66 -1 2 C-0.67 1.34 -0.34 0.68 0 0 Z " fill="#B2B2B2" transform="translate(179,116)"/>
<path d="M0 0 C4.8 3.44615385 4.8 3.44615385 5.8125 6.25 C5.874375 6.8275 5.93625 7.405 6 8 C5.01 7.67 4.02 7.34 3 7 C3 6.01 3 5.02 3 4 C2.01 3.67 1.02 3.34 0 3 C0 2.01 0 1.02 0 0 Z " fill="#0D3606" transform="translate(136,68)"/>
</svg>
